# xmcd
#
# Track frame offsets:
# 150
# 15711
# 28801
# 45598
# 61463
# 80632
# 97516
# 118554
# 135491
#
# Disc length: 2042 seconds
#
#
# Revision: 0
# Processed by: cddbd v1.5.2PL0 Copyright (c) Steve Scherf et al.
# Submitted via: FreeRIP 2.96 
#
DISCID=6907f809
DTITLE=PETRA LAUER - (M)EINS
DYEAR=2014
DGENRE=Country
TTITLE0=Nachteule und Morgenvogel
TTITLE1=Himmlischer Tag
TTITLE2=Träume
TTITLE3=Glück
TTITLE4=Zweites Ich
TTITLE5=Nur Zauber
TTITLE6=Wohin-Woher
TTITLE7=Hafen auf Zeit
TTITLE8=Momente
EXTD=
EXTT0=
EXTT1=
EXTT2=
EXTT3=
EXTT4=
EXTT5=
EXTT6=
EXTT7=
EXTT8=
PLAYORDER=
